<?xml version="1.0" encoding="utf-8"?>
<!-- Generator: Adobe Illustrator 19.1.0, SVG Export Plug-In . SVG Version: 6.00 Build 0)  -->
<!DOCTYPE svg PUBLIC "-//W3C//DTD SVG 1.1//EN" "http://www.w3.org/Graphics/SVG/1.1/DTD/svg11.dtd">
<svg version="1.1" id="Layer_1" xmlns="http://www.w3.org/2000/svg" xmlns:xlink="http://www.w3.org/1999/xlink" x="0px" y="0px"
	 width="582.2px" height="133.5px" viewBox="0 0 582.2 133.5" style="enable-background:new 0 0 582.2 133.5;" xml:space="preserve"
	>
<style type="text/css">
	.st0{fill:#839496;}
</style>
<g>
	<g>
		<path class="st0" d="M18,19.1h22.6c2.2,0,4.3,0.3,6.5,0.8c2.1,0.5,4,1.4,5.7,2.5c1.7,1.2,3,2.7,4.1,4.6c1,1.9,1.6,4.1,1.6,6.7
			c0,3.3-0.9,6-2.8,8.1c-1.9,2.1-4.3,3.7-7.3,4.6v0.2c3.7,0.5,6.7,1.9,9,4.3c2.4,2.4,3.5,5.5,3.5,9.4c0,3.2-0.6,5.8-1.9,8
			c-1.3,2.2-2.9,3.9-5,5.2c-2.1,1.3-4.4,2.3-7.1,2.8c-2.7,0.6-5.3,0.9-8.1,0.9H18V19.1z M28.3,42.7h9.2c3.4,0,6.1-0.7,7.9-2.1
			c1.8-1.4,2.7-3.3,2.7-5.8c0-2.6-0.9-4.5-2.8-5.6c-1.9-1.1-4.8-1.6-8.7-1.6h-8.3V42.7z M28.3,68.5h9.3c1.3,0,2.7-0.1,4.3-0.3
			c1.5-0.2,2.9-0.6,4.2-1.2c1.3-0.6,2.4-1.5,3.2-2.6c0.8-1.1,1.3-2.7,1.3-4.6c0-3.1-1-5.2-3.1-6.4c-2.1-1.2-5.2-1.8-9.4-1.8h-9.7
			V68.5z"/>
		<path class="st0" d="M124.3,48.3c0,0.6,0,1.3,0,1.9c0,0.6,0,1.3-0.1,1.9H78.9c0.1,2.4,0.6,4.6,1.6,6.7c1,2.1,2.3,3.9,4,5.5
			c1.7,1.5,3.6,2.8,5.8,3.6c2.2,0.9,4.5,1.3,7,1.3c3.8,0,7.2-0.8,10-2.5c2.8-1.7,5-3.7,6.6-6.1l7.9,6.4c-3,4-6.6,7-10.7,8.9
			c-4.1,1.9-8.7,2.9-13.7,2.9c-4.3,0-8.3-0.7-12-2.2c-3.7-1.4-6.8-3.5-9.5-6.1c-2.6-2.6-4.7-5.7-6.2-9.4c-1.5-3.7-2.3-7.8-2.3-12.2
			c0-4.4,0.7-8.5,2.2-12.2c1.5-3.7,3.5-6.9,6.2-9.5s5.8-4.7,9.4-6.2c3.6-1.5,7.5-2.2,11.7-2.2c4.2,0,8,0.7,11.4,2
			c3.4,1.4,6.3,3.3,8.7,5.9c2.4,2.6,4.2,5.7,5.5,9.3C123.6,39.6,124.3,43.7,124.3,48.3z M112.7,43.7c-0.1-2.2-0.5-4.3-1.1-6.3
			c-0.7-2-1.7-3.7-3-5.1c-1.3-1.4-3-2.6-4.9-3.4c-2-0.8-4.3-1.3-6.9-1.3c-2.4,0-4.7,0.4-6.8,1.3c-2.1,0.8-4,2-5.5,3.4
			s-2.8,3.1-3.8,5.1c-1,2-1.6,4.1-1.7,6.3H112.7z"/>
		<path class="st0" d="M131.7,19.1h13.7l27,43.5h0.2V19.1h10.3v58.1h-13.1l-27.6-44.9h-0.2v44.9h-10.3V19.1z"/>
		<path class="st0" d="M245.8,31.3c-1.1-1.4-2.6-2.6-4.6-3.6c-2-1-4-1.4-6-1.4c-1.2,0-2.4,0.2-3.6,0.5c-1.2,0.3-2.3,0.8-3.3,1.4
			c-1,0.6-1.8,1.4-2.4,2.5c-0.6,1-0.9,2.2-0.9,3.6c0,1.3,0.3,2.4,0.8,3.4c0.5,0.9,1.3,1.7,2.3,2.4c1,0.7,2.1,1.2,3.5,1.7
			c1.4,0.5,2.9,1,4.5,1.5c1.9,0.6,3.8,1.3,5.8,2c2,0.8,3.8,1.8,5.5,3c1.7,1.3,3,2.8,4.1,4.8c1.1,1.9,1.6,4.3,1.6,7.1
			c0,3.1-0.6,5.8-1.7,8.2c-1.1,2.3-2.7,4.3-4.6,5.8c-1.9,1.5-4.2,2.7-6.7,3.4c-2.6,0.8-5.3,1.1-8.1,1.1c-3.8,0-7.5-0.7-11.1-2.1
			c-3.6-1.4-6.6-3.5-8.9-6.2l7.4-6.9c1.4,2,3.3,3.5,5.7,4.7s4.7,1.7,7,1.7c1.2,0,2.4-0.1,3.7-0.5c1.3-0.3,2.4-0.8,3.4-1.5
			c1-0.7,1.8-1.6,2.5-2.7c0.6-1.1,0.9-2.4,0.9-4c0-1.5-0.4-2.8-1.1-3.8c-0.7-1-1.7-1.9-2.9-2.6c-1.2-0.7-2.6-1.4-4.3-1.9
			c-1.6-0.5-3.4-1.1-5.2-1.7c-1.8-0.5-3.5-1.2-5.2-2c-1.8-0.8-3.3-1.8-4.7-3c-1.4-1.3-2.5-2.8-3.4-4.6c-0.9-1.8-1.3-4.1-1.3-6.8
			c0-3,0.6-5.5,1.8-7.6s2.8-3.9,4.8-5.3c2-1.4,4.3-2.4,6.8-3.1c2.5-0.7,5.1-1,7.7-1c3,0,5.9,0.5,9,1.6c3,1,5.7,2.6,7.9,4.7
			L245.8,31.3z"/>
		<path class="st0" d="M300.3,40.3c0-4.2-1.3-7.4-3.8-9.4c-2.6-2-6-3.1-10.2-3.1c-3.2,0-6.2,0.6-9.1,1.9c-2.8,1.2-5.2,2.8-7.1,4.7
			l-6-7.2c2.8-2.6,6.2-4.7,10.3-6.2c4-1.5,8.4-2.3,13-2.3c4.1,0,7.6,0.6,10.6,1.7c3,1.2,5.5,2.7,7.4,4.7c1.9,2,3.4,4.4,4.3,7.1
			c1,2.7,1.4,5.6,1.4,8.8v24.8c0,1.9,0.1,3.9,0.2,6.1c0.1,2.1,0.3,3.9,0.7,5.2h-10.2c-0.6-2.7-1-5.4-1-8.2h-0.4
			c-2.1,3-4.7,5.4-7.9,7.1c-3.2,1.7-6.9,2.5-11.2,2.5c-2.2,0-4.6-0.3-7-0.9c-2.4-0.6-4.7-1.6-6.7-2.9c-2-1.4-3.7-3.2-5-5.4
			c-1.3-2.2-2-5-2-8.3c0-4.3,1.2-7.7,3.5-10.3c2.3-2.5,5.4-4.4,9.1-5.8c3.8-1.3,8-2.2,12.7-2.6c4.7-0.4,9.5-0.6,14.3-0.6V40.3z
			 M297.6,50.1c-2.8,0-5.7,0.1-8.7,0.4c-3,0.2-5.7,0.7-8.2,1.4c-2.4,0.7-4.5,1.8-6.1,3.2c-1.6,1.4-2.4,3.4-2.4,5.8
			c0,1.7,0.3,3.1,1,4.2c0.7,1.1,1.6,2,2.7,2.8c1.1,0.7,2.4,1.2,3.7,1.5c1.4,0.3,2.8,0.4,4.2,0.4c5.3,0,9.3-1.6,12.2-4.7
			c2.8-3.2,4.3-7.1,4.3-11.9v-3H297.6z"/>
		<path class="st0" d="M368.1,55.9c0,3.5-0.6,6.7-1.8,9.5c-1.2,2.8-2.8,5.2-4.9,7.2c-2.1,2-4.5,3.5-7.4,4.6
			c-2.8,1.1-5.9,1.6-9.3,1.6c-3.3,0-6.4-0.5-9.3-1.6c-2.8-1.1-5.3-2.6-7.4-4.6c-2.1-2-3.7-4.4-4.9-7.2c-1.2-2.8-1.8-6-1.8-9.5V19.1
			h10.3v36.3c0,1.7,0.2,3.4,0.7,5c0.4,1.7,1.2,3.2,2.2,4.5c1,1.3,2.3,2.4,4,3.2c1.7,0.8,3.7,1.2,6.2,1.2s4.5-0.4,6.2-1.2
			c1.7-0.8,3-1.9,4-3.2c1-1.3,1.7-2.8,2.2-4.5c0.4-1.7,0.7-3.3,0.7-5V19.1h10.3V55.9z"/>
		<path class="st0" d="M378.8,19.1h37.5v9h-27.1V44h25.6v8.7h-25.6v24.4h-10.3V19.1z"/>
		<path class="st0" d="M425.8,19.1h10.3V68h24.7v9.2h-35V19.1z"/>
		<path class="st0" d="M519.2,48.3c0,0.6,0,1.3,0,1.9c0,0.6,0,1.3-0.1,1.9h-45.2c0.1,2.4,0.6,4.6,1.6,6.7c1,2.1,2.3,3.9,4,5.5
			s3.6,2.8,5.8,3.6c2.2,0.9,4.5,1.3,7,1.3c3.8,0,7.2-0.8,10-2.5c2.8-1.7,5-3.7,6.6-6.1l7.9,6.4c-3,4-6.6,7-10.7,8.9
			c-4.1,1.9-8.7,2.9-13.7,2.9c-4.3,0-8.3-0.7-12-2.2c-3.7-1.4-6.8-3.5-9.5-6.1c-2.6-2.6-4.7-5.7-6.2-9.4c-1.5-3.7-2.3-7.8-2.3-12.2
			c0-4.4,0.7-8.5,2.2-12.2s3.5-6.9,6.2-9.5s5.8-4.7,9.4-6.2c3.6-1.5,7.5-2.2,11.7-2.2c4.2,0,8,0.7,11.4,2c3.4,1.4,6.3,3.3,8.7,5.9
			c2.4,2.6,4.2,5.7,5.5,9.3C518.6,39.6,519.2,43.7,519.2,48.3z M507.7,43.7c-0.1-2.2-0.5-4.3-1.1-6.3c-0.7-2-1.7-3.7-3-5.1
			c-1.3-1.4-3-2.6-4.9-3.4c-2-0.8-4.3-1.3-6.9-1.3c-2.4,0-4.7,0.4-6.8,1.3c-2.1,0.8-4,2-5.5,3.4c-1.6,1.4-2.8,3.1-3.8,5.1
			c-1,2-1.6,4.1-1.7,6.3H507.7z"/>
		<path class="st0" d="M538.3,52l-21.8-32.9h12.6l14.6,24.4l14.8-24.4h12L548.6,52v25.2h-10.3V52z"/>
	</g>
	<g>
		<path class="st0" d="M23.6,92.9c0,0.4-0.2,0.8-0.5,1.1c-0.3,0.3-0.7,0.4-1.1,0.4S21.4,94.3,21,94c-0.3-0.3-0.5-0.7-0.5-1.1
			c0-0.4,0.2-0.8,0.5-1.1c0.3-0.3,0.7-0.4,1.1-0.4s0.7,0.1,1.1,0.4C23.5,92.1,23.6,92.5,23.6,92.9z M23.2,113.6H21v-15h2.2V113.6z"
			/>
		<path class="st0" d="M31.2,113.6H29V89.5h2.2V113.6z"/>
		<path class="st0" d="M39.3,113.6h-2.2V89.5h2.2V113.6z"/>
		<path class="st0" d="M56,113.6c0-0.4-0.1-0.9-0.1-1.3c0-0.5,0-0.9,0-1.2h-0.1c-0.4,0.9-1.1,1.6-2.1,2.1c-1,0.5-2,0.8-3,0.8
			c-1.9,0-3.3-0.6-4.3-1.7c-0.9-1.1-1.4-2.6-1.4-4.5v-9.2h2.2v8.3c0,0.8,0.1,1.5,0.2,2.1s0.3,1.2,0.7,1.6c0.3,0.5,0.7,0.8,1.2,1.1
			c0.5,0.3,1.2,0.4,2,0.4c0.6,0,1.1-0.1,1.7-0.4c0.5-0.2,1-0.6,1.5-1.1c0.4-0.5,0.8-1.1,1-1.8c0.3-0.7,0.4-1.6,0.4-2.6v-7.7h2.2
			v11.7c0,0.4,0,0.9,0,1.6c0,0.6,0.1,1.2,0.1,1.7H56z"/>
		<path class="st0" d="M71.7,102.2c-0.3-0.6-0.8-1.1-1.5-1.5c-0.7-0.4-1.4-0.6-2.2-0.6c-0.4,0-0.8,0-1.2,0.1c-0.4,0.1-0.7,0.2-1,0.4
			c-0.3,0.2-0.5,0.4-0.7,0.7c-0.2,0.3-0.3,0.7-0.3,1.1c0,0.7,0.3,1.2,0.9,1.6c0.6,0.4,1.5,0.7,2.7,0.9c1.8,0.4,3.1,0.9,3.9,1.6
			c0.8,0.7,1.3,1.6,1.3,2.8c0,0.9-0.2,1.6-0.5,2.2c-0.3,0.6-0.8,1.1-1.3,1.4c-0.5,0.4-1.1,0.6-1.8,0.8s-1.3,0.2-2,0.2
			c-1.1,0-2.2-0.2-3.3-0.7c-1.1-0.5-1.9-1.2-2.6-2.2l1.7-1.3c0.4,0.7,0.9,1.2,1.7,1.7c0.7,0.4,1.6,0.7,2.5,0.7c0.5,0,0.9,0,1.3-0.1
			c0.4-0.1,0.8-0.2,1.1-0.4c0.3-0.2,0.6-0.5,0.8-0.8s0.3-0.7,0.3-1.2c0-0.8-0.4-1.4-1.1-1.8c-0.8-0.4-1.9-0.8-3.3-1.1
			c-0.4-0.1-0.9-0.2-1.4-0.4c-0.5-0.2-1-0.4-1.4-0.7c-0.4-0.3-0.8-0.7-1.1-1.2c-0.3-0.5-0.4-1.1-0.4-1.8c0-0.8,0.1-1.4,0.4-2
			c0.3-0.5,0.7-1,1.2-1.3c0.5-0.4,1.1-0.6,1.7-0.8c0.6-0.2,1.3-0.3,2-0.3c1,0,2.1,0.2,3,0.7c1,0.5,1.7,1.1,2.2,2L71.7,102.2z"/>
		<path class="st0" d="M84.7,100.5h-4.2v8.7c0,0.6,0.1,1,0.2,1.4c0.1,0.4,0.3,0.6,0.5,0.8c0.2,0.2,0.4,0.3,0.7,0.4
			c0.3,0.1,0.6,0.1,0.9,0.1c0.3,0,0.6,0,0.9-0.1c0.3-0.1,0.6-0.2,0.9-0.4l0.1,1.9c-0.4,0.1-0.8,0.3-1.2,0.3
			c-0.4,0.1-0.9,0.1-1.4,0.1c-0.4,0-0.8-0.1-1.3-0.2c-0.4-0.1-0.9-0.3-1.2-0.6c-0.4-0.3-0.7-0.7-0.9-1.2c-0.2-0.5-0.4-1.2-0.4-2
			v-9.3h-3.1v-1.8h3.1v-4.2h2.2v4.2h4.2V100.5z"/>
		<path class="st0" d="M88,100.4c0-0.6-0.1-1.2-0.1-1.7H90c0,0.4,0.1,0.9,0.1,1.3c0,0.5,0,0.9,0,1.2h0.1c0.4-0.9,1.1-1.6,1.9-2.1
			c0.9-0.5,1.8-0.8,2.9-0.8c0.3,0,0.5,0,0.8,0c0.2,0,0.5,0.1,0.7,0.1l-0.3,2.1c-0.1,0-0.3-0.1-0.6-0.1c-0.3,0-0.6-0.1-0.9-0.1
			c-0.6,0-1.1,0.1-1.7,0.3c-0.5,0.2-1,0.5-1.4,1c-0.4,0.5-0.7,1-1,1.8s-0.4,1.6-0.4,2.6v7.7H88V102C88,101.6,88,101,88,100.4z"/>
		<path class="st0" d="M108.6,104c0-1.3-0.3-2.3-1-2.9c-0.7-0.6-1.7-1-3-1c-0.9,0-1.7,0.2-2.5,0.5c-0.8,0.3-1.4,0.7-2,1.3l-1.2-1.4
			c0.6-0.6,1.4-1.1,2.4-1.5c1-0.4,2.2-0.6,3.4-0.6c0.8,0,1.6,0.1,2.3,0.3s1.3,0.6,1.9,1c0.5,0.4,0.9,1,1.2,1.7
			c0.3,0.7,0.4,1.5,0.4,2.4v6.6c0,0.6,0,1.2,0.1,1.8c0,0.6,0.1,1.1,0.2,1.6h-2c-0.1-0.4-0.1-0.8-0.2-1.2c0-0.4-0.1-0.8-0.1-1.2h-0.1
			c-0.7,1-1.5,1.7-2.3,2.2c-0.9,0.4-1.9,0.7-3.1,0.7c-0.6,0-1.2-0.1-1.8-0.2c-0.6-0.2-1.2-0.4-1.7-0.8c-0.5-0.4-0.9-0.8-1.2-1.4
			c-0.3-0.6-0.5-1.3-0.5-2.1c0-1.2,0.3-2.1,0.9-2.7c0.6-0.7,1.4-1.2,2.4-1.5c1-0.3,2.1-0.5,3.4-0.6c1.3-0.1,2.6-0.1,4-0.1V104z
			 M108,106.2c-0.9,0-1.8,0-2.7,0.1c-0.9,0.1-1.7,0.2-2.5,0.4c-0.7,0.2-1.3,0.5-1.8,1c-0.5,0.4-0.7,1-0.7,1.7c0,0.5,0.1,1,0.3,1.3
			c0.2,0.4,0.5,0.7,0.8,0.9c0.3,0.2,0.7,0.4,1.1,0.5c0.4,0.1,0.8,0.1,1.3,0.1c0.8,0,1.5-0.1,2-0.4c0.6-0.3,1.1-0.6,1.5-1.1
			c0.4-0.5,0.7-1,0.9-1.6c0.2-0.6,0.3-1.2,0.3-1.9v-1.1H108z"/>
		<path class="st0" d="M122.7,100.5h-4.2v8.7c0,0.6,0.1,1,0.2,1.4c0.1,0.4,0.3,0.6,0.5,0.8c0.2,0.2,0.4,0.3,0.7,0.4
			c0.3,0.1,0.6,0.1,0.9,0.1c0.3,0,0.6,0,0.9-0.1c0.3-0.1,0.6-0.2,0.9-0.4l0.1,1.9c-0.4,0.1-0.8,0.3-1.2,0.3
			c-0.4,0.1-0.9,0.1-1.4,0.1c-0.4,0-0.8-0.1-1.3-0.2c-0.4-0.1-0.9-0.3-1.2-0.6c-0.4-0.3-0.7-0.7-0.9-1.2c-0.2-0.5-0.4-1.2-0.4-2
			v-9.3h-3.1v-1.8h3.1v-4.2h2.2v4.2h4.2V100.5z"/>
		<path class="st0" d="M141,106.2c0,1.1-0.2,2.2-0.6,3.1c-0.4,1-0.9,1.8-1.6,2.5s-1.5,1.3-2.5,1.6c-1,0.4-2.1,0.6-3.2,0.6
			c-1.2,0-2.2-0.2-3.2-0.6c-1-0.4-1.8-0.9-2.5-1.6c-0.7-0.7-1.3-1.5-1.6-2.5c-0.4-1-0.6-2-0.6-3.1s0.2-2.2,0.6-3.1
			c0.4-1,0.9-1.8,1.6-2.5c0.7-0.7,1.5-1.3,2.5-1.6c1-0.4,2-0.6,3.2-0.6c1.2,0,2.3,0.2,3.2,0.6c1,0.4,1.8,0.9,2.5,1.6
			s1.3,1.5,1.6,2.5C140.8,104,141,105,141,106.2z M138.7,106.2c0-0.8-0.1-1.6-0.4-2.4c-0.3-0.7-0.6-1.4-1.1-1.9
			c-0.5-0.5-1.1-1-1.8-1.3c-0.7-0.3-1.5-0.5-2.4-0.5c-0.9,0-1.7,0.2-2.4,0.5c-0.7,0.3-1.3,0.8-1.8,1.3c-0.5,0.5-0.9,1.2-1.1,1.9
			c-0.3,0.7-0.4,1.5-0.4,2.4s0.1,1.6,0.4,2.4c0.3,0.7,0.6,1.4,1.1,1.9s1.1,1,1.8,1.3c0.7,0.3,1.5,0.5,2.4,0.5c0.9,0,1.7-0.2,2.4-0.5
			c0.7-0.3,1.3-0.7,1.8-1.3s0.9-1.2,1.1-1.9C138.5,107.8,138.7,107,138.7,106.2z"/>
		<path class="st0" d="M145.6,100.4c0-0.6-0.1-1.2-0.1-1.7h2.1c0,0.4,0.1,0.9,0.1,1.3c0,0.5,0,0.9,0,1.2h0.1
			c0.4-0.9,1.1-1.6,1.9-2.1c0.9-0.5,1.8-0.8,2.9-0.8c0.3,0,0.5,0,0.8,0c0.2,0,0.5,0.1,0.7,0.1l-0.3,2.1c-0.1,0-0.3-0.1-0.6-0.1
			c-0.3,0-0.6-0.1-0.9-0.1c-0.6,0-1.1,0.1-1.7,0.3c-0.5,0.2-1,0.5-1.4,1c-0.4,0.5-0.7,1-1,1.8s-0.4,1.6-0.4,2.6v7.7h-2.2V102
			C145.6,101.6,145.6,101,145.6,100.4z"/>
		<path class="st0" d="M156,118.1h-1.8l2.1-7.5h2.3L156,118.1z"/>
		<path class="st0" d="M171.3,98.7l3.6,12.2h0.1l4-12.2h2.1l4.1,12.2h0.1l3.6-12.2h2.3l-4.7,15H184l-4-12.1H180l-3.9,12.1h-2.4
			l-4.7-15H171.3z"/>
		<path class="st0" d="M208.5,105.7c0,0.1,0,0.3,0,0.5c0,0.2,0,0.4,0,0.5H196c0,0.7,0.2,1.5,0.4,2.1c0.3,0.7,0.7,1.2,1.2,1.7
			c0.5,0.5,1.1,0.9,1.7,1.2c0.7,0.3,1.4,0.4,2.1,0.4c1.1,0,2.1-0.3,2.9-0.8c0.8-0.5,1.4-1.1,1.9-1.8l1.6,1.3c-0.9,1.1-1.9,1.9-3,2.4
			c-1.1,0.5-2.2,0.7-3.5,0.7c-1.1,0-2.1-0.2-3.1-0.6c-0.9-0.4-1.8-0.9-2.4-1.6c-0.7-0.7-1.2-1.5-1.6-2.5c-0.4-1-0.6-2-0.6-3.1
			s0.2-2.2,0.6-3.1c0.4-1,0.9-1.8,1.6-2.5s1.5-1.3,2.4-1.6c0.9-0.4,1.9-0.6,3-0.6c1.2,0,2.2,0.2,3.1,0.6c0.9,0.4,1.6,0.9,2.2,1.6
			c0.6,0.7,1.1,1.5,1.4,2.4C208.3,103.7,208.5,104.7,208.5,105.7z M206.3,105c-0.1-1.4-0.5-2.6-1.4-3.5c-0.8-0.9-2-1.4-3.6-1.4
			c-0.7,0-1.4,0.1-2,0.4c-0.6,0.3-1.2,0.6-1.6,1.1c-0.5,0.5-0.8,1-1.1,1.6c-0.3,0.6-0.4,1.2-0.5,1.8H206.3z"/>
		<path class="st0" d="M215.4,111.1v2.5h-2.2V89.5h2.2v11.8h0.1c0.6-1,1.5-1.7,2.5-2.2c1-0.5,2.1-0.8,3.2-0.8c1.2,0,2.2,0.2,3.2,0.6
			c0.9,0.4,1.8,1,2.4,1.7c0.7,0.7,1.2,1.5,1.6,2.5c0.4,1,0.6,2,0.6,3.1s-0.2,2.1-0.6,3.1c-0.4,1-0.9,1.8-1.6,2.5
			c-0.7,0.7-1.5,1.3-2.4,1.7c-0.9,0.4-2,0.6-3.2,0.6c-1.1,0-2.1-0.2-3.2-0.7C216.9,112.8,216.1,112.1,215.4,111.1L215.4,111.1z
			 M226.6,106.2c0-0.8-0.1-1.6-0.4-2.4c-0.3-0.7-0.6-1.4-1.1-1.9c-0.5-0.5-1.1-1-1.8-1.3c-0.7-0.3-1.5-0.5-2.4-0.5
			c-0.8,0-1.6,0.2-2.3,0.5c-0.7,0.3-1.3,0.7-1.8,1.3c-0.5,0.5-0.9,1.2-1.2,1.9s-0.4,1.5-0.4,2.4c0,0.9,0.1,1.6,0.4,2.4
			s0.7,1.4,1.2,1.9c0.5,0.5,1.1,1,1.8,1.3c0.7,0.3,1.5,0.5,2.3,0.5c0.9,0,1.7-0.2,2.4-0.5c0.7-0.3,1.3-0.7,1.8-1.3s0.8-1.2,1.1-1.9
			C226.4,107.8,226.6,107,226.6,106.2z"/>
		<path class="st0" d="M253.9,111.1c-0.6,1-1.5,1.7-2.5,2.2c-1,0.5-2.1,0.7-3.2,0.7c-1.2,0-2.2-0.2-3.2-0.6c-0.9-0.4-1.8-1-2.4-1.7
			c-0.7-0.7-1.2-1.5-1.6-2.5c-0.4-1-0.6-2-0.6-3.1s0.2-2.1,0.6-3.1c0.4-1,0.9-1.8,1.6-2.5s1.5-1.3,2.4-1.7c0.9-0.4,2-0.6,3.2-0.6
			c1.1,0,2.1,0.3,3.2,0.8c1,0.5,1.9,1.2,2.5,2.2h0.1V89.5h2.2v24.2h-2.2L253.9,111.1L253.9,111.1z M242.8,106.2
			c0,0.8,0.1,1.6,0.4,2.4c0.3,0.7,0.6,1.4,1.1,1.9s1.1,1,1.8,1.3c0.7,0.3,1.5,0.5,2.4,0.5c0.8,0,1.6-0.2,2.3-0.5
			c0.7-0.3,1.3-0.7,1.8-1.3c0.5-0.5,0.9-1.2,1.2-1.9s0.4-1.5,0.4-2.4c0-0.9-0.1-1.6-0.4-2.4s-0.7-1.4-1.2-1.9
			c-0.5-0.5-1.1-1-1.8-1.3s-1.5-0.5-2.3-0.5c-0.9,0-1.7,0.2-2.4,0.5c-0.7,0.3-1.3,0.8-1.8,1.3c-0.5,0.5-0.8,1.2-1.1,1.9
			C242.9,104.5,242.8,105.3,242.8,106.2z"/>
		<path class="st0" d="M275.6,105.7c0,0.1,0,0.3,0,0.5c0,0.2,0,0.4,0,0.5h-12.4c0,0.7,0.2,1.5,0.4,2.1c0.3,0.7,0.7,1.2,1.2,1.7
			c0.5,0.5,1.1,0.9,1.7,1.2c0.7,0.3,1.4,0.4,2.1,0.4c1.1,0,2.1-0.3,2.9-0.8c0.8-0.5,1.4-1.1,1.9-1.8l1.6,1.3c-0.9,1.1-1.9,1.9-3,2.4
			c-1.1,0.5-2.2,0.7-3.5,0.7c-1.1,0-2.1-0.2-3.1-0.6c-0.9-0.4-1.8-0.9-2.4-1.6c-0.7-0.7-1.2-1.5-1.6-2.5c-0.4-1-0.6-2-0.6-3.1
			s0.2-2.2,0.6-3.1c0.4-1,0.9-1.8,1.6-2.5s1.5-1.3,2.4-1.6c0.9-0.4,1.9-0.6,3-0.6c1.2,0,2.2,0.2,3.1,0.6c0.9,0.4,1.6,0.9,2.2,1.6
			c0.6,0.7,1.1,1.5,1.4,2.4C275.4,103.7,275.6,104.7,275.6,105.7z M273.4,105c-0.1-1.4-0.5-2.6-1.4-3.5c-0.8-0.9-2-1.4-3.6-1.4
			c-0.7,0-1.4,0.1-2,0.4c-0.6,0.3-1.2,0.6-1.6,1.1c-0.5,0.5-0.8,1-1.1,1.6c-0.3,0.6-0.4,1.2-0.5,1.8H273.4z"/>
		<path class="st0" d="M288.2,102.2c-0.3-0.6-0.8-1.1-1.5-1.5c-0.7-0.4-1.4-0.6-2.2-0.6c-0.4,0-0.8,0-1.2,0.1
			c-0.4,0.1-0.7,0.2-1,0.4c-0.3,0.2-0.5,0.4-0.7,0.7c-0.2,0.3-0.3,0.7-0.3,1.1c0,0.7,0.3,1.2,0.9,1.6c0.6,0.4,1.5,0.7,2.7,0.9
			c1.8,0.4,3.1,0.9,3.9,1.6c0.8,0.7,1.3,1.6,1.3,2.8c0,0.9-0.2,1.6-0.5,2.2c-0.3,0.6-0.8,1.1-1.3,1.4s-1.1,0.6-1.8,0.8
			s-1.3,0.2-2,0.2c-1.1,0-2.2-0.2-3.3-0.7c-1.1-0.5-1.9-1.2-2.6-2.2l1.7-1.3c0.4,0.7,0.9,1.2,1.7,1.7c0.7,0.4,1.6,0.7,2.5,0.7
			c0.5,0,0.9,0,1.3-0.1c0.4-0.1,0.8-0.2,1.1-0.4s0.6-0.5,0.8-0.8c0.2-0.3,0.3-0.7,0.3-1.2c0-0.8-0.4-1.4-1.1-1.8
			c-0.8-0.4-1.9-0.8-3.3-1.1c-0.4-0.1-0.9-0.2-1.4-0.4c-0.5-0.2-1-0.4-1.4-0.7c-0.4-0.3-0.8-0.7-1.1-1.2c-0.3-0.5-0.4-1.1-0.4-1.8
			c0-0.8,0.1-1.4,0.4-2c0.3-0.5,0.7-1,1.2-1.3c0.5-0.4,1.1-0.6,1.7-0.8c0.6-0.2,1.3-0.3,2-0.3c1,0,2.1,0.2,3,0.7
			c1,0.5,1.7,1.1,2.2,2L288.2,102.2z"/>
		<path class="st0" d="M297.1,92.9c0,0.4-0.2,0.8-0.5,1.1c-0.3,0.3-0.7,0.4-1.1,0.4s-0.7-0.1-1.1-0.4c-0.3-0.3-0.5-0.7-0.5-1.1
			c0-0.4,0.2-0.8,0.5-1.1c0.3-0.3,0.7-0.4,1.1-0.4s0.7,0.1,1.1,0.4C296.9,92.1,297.1,92.5,297.1,92.9z M296.7,113.6h-2.2v-15h2.2
			V113.6z"/>
		<path class="st0" d="M303.2,116.7c0.6,0.8,1.4,1.4,2.4,2c1,0.5,2.1,0.8,3.3,0.8c1.1,0,2-0.2,2.7-0.5c0.7-0.3,1.3-0.7,1.8-1.3
			c0.5-0.5,0.8-1.2,1-1.9c0.2-0.7,0.3-1.5,0.3-2.3v-2.8h-0.1c-0.6,0.9-1.4,1.7-2.4,2.2c-1.1,0.5-2.1,0.8-3.2,0.8
			c-1.2,0-2.2-0.2-3.2-0.6c-0.9-0.4-1.8-0.9-2.4-1.6c-0.7-0.7-1.2-1.5-1.6-2.4c-0.4-0.9-0.6-2-0.6-3c0-1.1,0.2-2.1,0.6-3
			c0.4-0.9,0.9-1.8,1.6-2.5s1.5-1.3,2.4-1.7s2-0.6,3.2-0.6c1.1,0,2.2,0.3,3.2,0.8c1,0.5,1.9,1.2,2.5,2.2h0.1v-2.6h2.2v14.8
			c0,0.8-0.1,1.7-0.3,2.6c-0.2,0.9-0.6,1.8-1.2,2.5c-0.6,0.8-1.4,1.4-2.5,1.9c-1,0.5-2.4,0.8-4.1,0.8c-1.4,0-2.7-0.3-4-0.8
			s-2.3-1.3-3.2-2.2L303.2,116.7z M303.7,106c0,0.8,0.1,1.5,0.4,2.2c0.3,0.7,0.6,1.3,1.1,1.9c0.5,0.5,1.1,1,1.8,1.3s1.5,0.5,2.4,0.5
			c0.8,0,1.6-0.1,2.3-0.4c0.7-0.3,1.3-0.7,1.8-1.2c0.5-0.5,0.9-1.1,1.2-1.8s0.4-1.5,0.4-2.4c0-0.8-0.1-1.5-0.4-2.2s-0.7-1.3-1.2-1.9
			c-0.5-0.5-1.1-1-1.8-1.3c-0.7-0.3-1.5-0.5-2.3-0.5c-0.9,0-1.7,0.2-2.4,0.5c-0.7,0.3-1.3,0.7-1.8,1.3s-0.8,1.2-1.1,1.9
			C303.8,104.4,303.7,105.2,303.7,106z"/>
		<path class="st0" d="M324.6,98.7c0,0.4,0.1,0.9,0.1,1.3s0,0.9,0,1.2h0.1c0.4-0.9,1.1-1.6,2.1-2.1c1-0.5,2-0.8,3-0.8
			c1.9,0,3.3,0.6,4.3,1.7c0.9,1.1,1.4,2.6,1.4,4.5v9.2h-2.2v-8.3c0-0.8-0.1-1.5-0.2-2.1c-0.1-0.6-0.3-1.2-0.7-1.6
			c-0.3-0.5-0.7-0.8-1.2-1.1c-0.5-0.3-1.2-0.4-2-0.4c-0.6,0-1.1,0.1-1.7,0.4c-0.5,0.2-1,0.6-1.5,1.1s-0.8,1.1-1,1.8
			c-0.3,0.7-0.4,1.6-0.4,2.6v7.7h-2.2V102c0-0.4,0-0.9,0-1.6s-0.1-1.2-0.1-1.7H324.6z"/>
		<path class="st0" d="M354.9,105.7c0,0.1,0,0.3,0,0.5c0,0.2,0,0.4,0,0.5h-12.4c0,0.7,0.2,1.5,0.4,2.1s0.7,1.2,1.2,1.7
			c0.5,0.5,1.1,0.9,1.7,1.2c0.7,0.3,1.4,0.4,2.1,0.4c1.1,0,2.1-0.3,2.9-0.8c0.8-0.5,1.4-1.1,1.9-1.8l1.6,1.3c-0.9,1.1-1.9,1.9-3,2.4
			c-1.1,0.5-2.2,0.7-3.5,0.7c-1.1,0-2.1-0.2-3.1-0.6c-1-0.4-1.8-0.9-2.4-1.6s-1.2-1.5-1.6-2.5s-0.6-2-0.6-3.1s0.2-2.2,0.6-3.1
			s0.9-1.8,1.6-2.5s1.5-1.3,2.4-1.6c0.9-0.4,1.9-0.6,3-0.6c1.2,0,2.2,0.2,3.1,0.6c0.9,0.4,1.6,0.9,2.2,1.6c0.6,0.7,1,1.5,1.4,2.4
			S354.9,104.7,354.9,105.7z M352.7,105c-0.1-1.4-0.5-2.6-1.4-3.5c-0.8-0.9-2-1.4-3.6-1.4c-0.7,0-1.4,0.1-2,0.4
			c-0.6,0.3-1.2,0.6-1.6,1.1c-0.5,0.5-0.8,1-1.1,1.6c-0.3,0.6-0.4,1.2-0.5,1.8H352.7z"/>
		<path class="st0" d="M359.5,100.4c0-0.6-0.1-1.2-0.1-1.7h2.1c0,0.4,0.1,0.9,0.1,1.3s0,0.9,0,1.2h0.1c0.4-0.9,1.1-1.6,1.9-2.1
			c0.9-0.5,1.8-0.8,2.9-0.8c0.3,0,0.5,0,0.8,0c0.2,0,0.5,0.1,0.7,0.1l-0.3,2.1c-0.1,0-0.3-0.1-0.6-0.1c-0.3,0-0.6-0.1-0.9-0.1
			c-0.6,0-1.1,0.1-1.7,0.3c-0.5,0.2-1,0.5-1.4,1s-0.7,1-1,1.8s-0.4,1.6-0.4,2.6v7.7h-2.2V102C359.6,101.6,359.6,101,359.5,100.4z"/>
		<path class="st0" d="M422.4,111.1c-0.6,1-1.5,1.7-2.5,2.2c-1,0.5-2.1,0.7-3.2,0.7c-1.2,0-2.2-0.2-3.2-0.6c-0.9-0.4-1.8-1-2.4-1.7
			c-0.7-0.7-1.2-1.5-1.6-2.5c-0.4-1-0.6-2-0.6-3.1s0.2-2.1,0.6-3.1s0.9-1.8,1.6-2.5s1.5-1.3,2.4-1.7s2-0.6,3.2-0.6
			c1.1,0,2.1,0.3,3.2,0.8c1,0.5,1.9,1.2,2.5,2.2h0.1V89.5h2.2v24.2h-2.2L422.4,111.1L422.4,111.1z M411.3,106.2
			c0,0.8,0.1,1.6,0.4,2.4c0.3,0.7,0.6,1.4,1.1,1.9s1.1,1,1.8,1.3c0.7,0.3,1.5,0.5,2.4,0.5c0.8,0,1.6-0.2,2.3-0.5
			c0.7-0.3,1.3-0.7,1.8-1.3c0.5-0.5,0.9-1.2,1.2-1.9s0.4-1.5,0.4-2.4c0-0.9-0.1-1.6-0.4-2.4s-0.7-1.4-1.2-1.9
			c-0.5-0.5-1.1-1-1.8-1.3c-0.7-0.3-1.5-0.5-2.3-0.5c-0.9,0-1.7,0.2-2.4,0.5c-0.7,0.3-1.3,0.8-1.8,1.3c-0.5,0.5-0.8,1.2-1.1,1.9
			C411.5,104.5,411.3,105.3,411.3,106.2z"/>
		<path class="st0" d="M444.1,105.7c0,0.1,0,0.3,0,0.5c0,0.2,0,0.4,0,0.5h-12.4c0,0.7,0.2,1.5,0.4,2.1s0.7,1.2,1.2,1.7
			c0.5,0.5,1.1,0.9,1.7,1.2c0.7,0.3,1.4,0.4,2.1,0.4c1.1,0,2.1-0.3,2.9-0.8c0.8-0.5,1.4-1.1,1.9-1.8l1.6,1.3c-0.9,1.1-1.9,1.9-3,2.4
			c-1.1,0.5-2.2,0.7-3.5,0.7c-1.1,0-2.1-0.2-3.1-0.6c-1-0.4-1.8-0.9-2.4-1.6s-1.2-1.5-1.6-2.5s-0.6-2-0.6-3.1s0.2-2.2,0.6-3.1
			s0.9-1.8,1.6-2.5s1.5-1.3,2.4-1.6c0.9-0.4,1.9-0.6,3-0.6c1.2,0,2.2,0.2,3.1,0.6c0.9,0.4,1.6,0.9,2.2,1.6c0.6,0.7,1,1.5,1.4,2.4
			S444.1,104.7,444.1,105.7z M441.9,105c-0.1-1.4-0.5-2.6-1.4-3.5c-0.8-0.9-2-1.4-3.6-1.4c-0.7,0-1.4,0.1-2,0.4
			c-0.6,0.3-1.2,0.6-1.6,1.1c-0.5,0.5-0.8,1-1.1,1.6c-0.3,0.6-0.4,1.2-0.5,1.8H441.9z"/>
		<path class="st0" d="M454.9,113.6h-2.4l-6.1-15h2.4l4.9,12.7h0.1l4.9-12.7h2.3L454.9,113.6z"/>
		<path class="st0" d="M478,105.7c0,0.1,0,0.3,0,0.5c0,0.2,0,0.4,0,0.5h-12.4c0,0.7,0.2,1.5,0.4,2.1s0.7,1.2,1.2,1.7
			c0.5,0.5,1.1,0.9,1.7,1.2c0.7,0.3,1.4,0.4,2.1,0.4c1.1,0,2.1-0.3,2.9-0.8c0.8-0.5,1.4-1.1,1.9-1.8l1.6,1.3c-0.9,1.1-1.9,1.9-3,2.4
			c-1.1,0.5-2.2,0.7-3.5,0.7c-1.1,0-2.1-0.2-3.1-0.6c-1-0.4-1.8-0.9-2.4-1.6s-1.2-1.5-1.6-2.5s-0.6-2-0.6-3.1s0.2-2.2,0.6-3.1
			s0.9-1.8,1.6-2.5s1.5-1.3,2.4-1.6c0.9-0.4,1.9-0.6,3-0.6c1.2,0,2.2,0.2,3.1,0.6c0.9,0.4,1.6,0.9,2.2,1.6c0.6,0.7,1,1.5,1.4,2.4
			S478,104.7,478,105.7z M475.8,105c-0.1-1.4-0.5-2.6-1.4-3.5c-0.8-0.9-2-1.4-3.6-1.4c-0.7,0-1.4,0.1-2,0.4
			c-0.6,0.3-1.2,0.6-1.6,1.1c-0.5,0.5-0.8,1-1.1,1.6c-0.3,0.6-0.4,1.2-0.5,1.8H475.8z"/>
		<path class="st0" d="M485,113.6h-2.2V89.5h2.2V113.6z"/>
		<path class="st0" d="M505.7,106.2c0,1.1-0.2,2.2-0.6,3.1s-0.9,1.8-1.6,2.5c-0.7,0.7-1.5,1.3-2.5,1.6c-1,0.4-2.1,0.6-3.2,0.6
			c-1.2,0-2.2-0.2-3.2-0.6s-1.8-0.9-2.5-1.6s-1.3-1.5-1.6-2.5s-0.6-2-0.6-3.1s0.2-2.2,0.6-3.1s0.9-1.8,1.6-2.5s1.5-1.3,2.5-1.6
			c1-0.4,2-0.6,3.2-0.6c1.2,0,2.3,0.2,3.2,0.6c1,0.4,1.8,0.9,2.5,1.6c0.7,0.7,1.3,1.5,1.6,2.5S505.7,105,505.7,106.2z M503.4,106.2
			c0-0.8-0.1-1.6-0.4-2.4c-0.3-0.7-0.6-1.4-1.1-1.9c-0.5-0.5-1.1-1-1.8-1.3c-0.7-0.3-1.5-0.5-2.4-0.5s-1.7,0.2-2.4,0.5
			c-0.7,0.3-1.3,0.8-1.8,1.3c-0.5,0.5-0.9,1.2-1.1,1.9c-0.3,0.7-0.4,1.5-0.4,2.4s0.1,1.6,0.4,2.4c0.3,0.7,0.6,1.4,1.1,1.9
			c0.5,0.5,1.1,1,1.8,1.3c0.7,0.3,1.5,0.5,2.4,0.5s1.7-0.2,2.4-0.5c0.7-0.3,1.3-0.7,1.8-1.3c0.5-0.5,0.9-1.2,1.1-1.9
			C503.2,107.8,503.4,107,503.4,106.2z"/>
		<path class="st0" d="M512.5,121.3h-2.2V98.7h2.2v2.6h0.1c0.6-1,1.4-1.7,2.5-2.2c1-0.5,2.1-0.8,3.2-0.8c1.2,0,2.2,0.2,3.2,0.6
			s1.8,1,2.4,1.7c0.7,0.7,1.2,1.5,1.6,2.5s0.6,2,0.6,3.1s-0.2,2.1-0.6,3.1c-0.4,1-0.9,1.8-1.6,2.5c-0.7,0.7-1.5,1.3-2.4,1.7
			c-0.9,0.4-2,0.6-3.2,0.6c-1.1,0-2.1-0.3-3.2-0.8c-1-0.5-1.9-1.2-2.5-2.2h-0.1V121.3z M523.7,106.2c0-0.8-0.1-1.6-0.4-2.4
			c-0.3-0.7-0.6-1.4-1.1-1.9c-0.5-0.5-1.1-1-1.8-1.3c-0.7-0.3-1.5-0.5-2.4-0.5c-0.8,0-1.6,0.2-2.3,0.5s-1.3,0.7-1.8,1.3
			c-0.5,0.5-0.9,1.2-1.2,1.9c-0.3,0.7-0.4,1.5-0.4,2.4c0,0.9,0.1,1.6,0.4,2.4c0.3,0.7,0.7,1.4,1.2,1.9c0.5,0.5,1.1,1,1.8,1.3
			c0.7,0.3,1.5,0.5,2.3,0.5c0.9,0,1.7-0.2,2.4-0.5c0.7-0.3,1.3-0.7,1.8-1.3c0.5-0.5,0.8-1.2,1.1-1.9
			C523.5,107.8,523.7,107,523.7,106.2z"/>
		<path class="st0" d="M544.3,105.7c0,0.1,0,0.3,0,0.5c0,0.2,0,0.4,0,0.5h-12.4c0,0.7,0.2,1.5,0.4,2.1s0.7,1.2,1.2,1.7
			c0.5,0.5,1.1,0.9,1.7,1.2c0.7,0.3,1.4,0.4,2.1,0.4c1.1,0,2.1-0.3,2.9-0.8c0.8-0.5,1.4-1.1,1.9-1.8l1.6,1.3c-0.9,1.1-1.9,1.9-3,2.4
			c-1.1,0.5-2.2,0.7-3.5,0.7c-1.1,0-2.1-0.2-3.1-0.6c-1-0.4-1.8-0.9-2.4-1.6s-1.2-1.5-1.6-2.5s-0.6-2-0.6-3.1s0.2-2.2,0.6-3.1
			s0.9-1.8,1.6-2.5s1.5-1.3,2.4-1.6c0.9-0.4,1.9-0.6,3-0.6c1.2,0,2.2,0.2,3.1,0.6c0.9,0.4,1.6,0.9,2.2,1.6c0.6,0.7,1,1.5,1.4,2.4
			S544.3,104.7,544.3,105.7z M542.1,105c-0.1-1.4-0.5-2.6-1.4-3.5c-0.8-0.9-2-1.4-3.6-1.4c-0.7,0-1.4,0.1-2,0.4
			c-0.6,0.3-1.2,0.6-1.6,1.1c-0.5,0.5-0.8,1-1.1,1.6c-0.3,0.6-0.4,1.2-0.5,1.8H542.1z"/>
		<path class="st0" d="M548.9,100.4c0-0.6-0.1-1.2-0.1-1.7h2.1c0,0.4,0.1,0.9,0.1,1.3s0,0.9,0,1.2h0.1c0.4-0.9,1.1-1.6,1.9-2.1
			c0.9-0.5,1.8-0.8,2.9-0.8c0.3,0,0.5,0,0.8,0c0.2,0,0.5,0.1,0.7,0.1l-0.3,2.1c-0.1,0-0.3-0.1-0.6-0.1c-0.3,0-0.6-0.1-0.9-0.1
			c-0.6,0-1.1,0.1-1.7,0.3c-0.5,0.2-1,0.5-1.4,1s-0.7,1-1,1.8s-0.4,1.6-0.4,2.6v7.7H549V102C549,101.6,548.9,101,548.9,100.4z"/>
	</g>
	<path class="st0" d="M399.8,109.9l0-0.2c0-1.9-1.5-2.9-2.3-3.3l-0.7,1.9c0.1,0,1,0.4,1,1.4l0,0.2c0,0.5,0,1.3-0.4,1.8
		c-0.3,0.3-0.8,0.4-1.5,0.4c-1.3,0-2.1-1.2-3-3.1c1.4-1.8,2.3-4.3,2.5-7.4h2.6v-2h-7.2v2h2.6c-0.1,2-0.6,3.7-1.4,5.1
		c-0.4-0.9-0.7-1.8-1.2-2.6c-1-1.7-1.9-3.1-3-4c1.1-0.8,1.9-2,1.9-3.7c0-3.1-2.2-5.5-4.9-5.5c-2.7,0-5.7,2-5.7,5.2
		c0,1.8,1.1,3.1,2.5,3.9c-2.3,1.2-4.8,3.6-4.8,7c0,4.9,3.7,7.2,7.2,7.2c1.6,0,4.8-1,7.4-3.5c0.9,1.9,2.2,3.5,4.4,3.5
		c1.3,0,2.2-0.4,2.9-1C399.9,112.1,399.9,110.6,399.8,109.9z M381.3,96.1c0-2.1,2.1-3.2,3.7-3.2c1.7,0,2.9,1.5,2.9,3.5
		c0,2-1.9,2.6-2.9,2.6C383.9,99,381.3,98,381.3,96.1z M384.1,112.2c-2.4,0-5.2-1.4-5.2-5.2c0-3.8,4.7-6,6-6c1.5,0,2.6,1.3,4.2,4.2
		c0.4,0.7,0.8,1.7,1.2,2.8c0.1,0.2,0.2,0.5,0.3,0.7C388.4,111.2,385.5,112.2,384.1,112.2z"/>
</g>
<g>
</g>
<g>
</g>
<g>
</g>
<g>
</g>
<g>
</g>
<g>
</g>
</svg>
